PathFileType	4	(X/Y/Z)	Kaydara	
DataRate	CameraRate	NumFrames	NumMarkers	Units	OrigDataRate	OrigDataStartFrame	OrigNumFrames	
120.00	120.00	8	30	mm	120.00	1780	2847	
Frame#	Time	reference			Pelvis			Left_hip			Left_knee			Left_ankle			Left_foot			Left_foot_End			Right_hip			Right_knee			Right_ankle			Right_foot			Right_foot_End			Spine1			Spine2			Spine3			Neck			Head			Head_End			Left_collar			Left_shoulder			Left_elbow			Left_wrist			Left_palm			Left_palm_End			Right_collar			Right_shoulder			Right_elbow			Right_wrist			Right_palm			Right_palm_End			
		X1	Y1	Z1	X2	Y2	Z2	X3	Y3	Z3	X4	Y4	Z4	X5	Y5	Z5	X6	Y6	Z6	X7	Y7	Z7	X8	Y8	Z8	X9	Y9	Z9	X10	Y10	Z10	X11	Y11	Z11	X12	Y12	Z12	X13	Y13	Z13	X14	Y14	Z14	X15	Y15	Z15	X16	Y16	Z16	X17	Y17	Z17	X18	Y18	Z18	X19	Y19	Z19	X20	Y20	Z20	X21	Y21	Z21	X22	Y22	Z22	X23	Y23	Z23	X24	Y24	Z24	X25	Y25	Z25	X26	Y26	Z26	X27	Y27	Z27	X28	Y28	Z28	X29	Y29	Z29	X30	Y30	Z30	

1780	14.825	0.00000	0.00000	0.00000	752.34001	901.77002	-861.63002	668.84976	842.40060	-865.92525	722.93679	536.76764	-1100.39058	816.67974	223.88790	-822.61449	777.80802	142.95868	-932.85765	777.80802	142.95868	-932.85765	771.23947	802.20865	-819.87285	858.50320	509.35990	-1055.95700	894.44517	120.08253	-897.31409	958.65096	40.37415	-1004.92071	958.65096	40.37415	-1004.92071	788.11823	1020.64399	-870.98795	829.44318	1152.29586	-875.69406	853.78064	1202.79881	-878.86412	949.66572	1391.81743	-863.74833	983.55105	1488.68837	-868.34006	983.55105	1488.68837	-868.34006	836.02145	1336.86289	-893.21065	746.82763	1421.93171	-941.41420	623.71049	1199.50784	-977.96072	456.69729	1010.77235	-1063.41484	392.71824	949.65087	-1069.92606	392.71824	949.65087	-1069.92606	961.05569	1277.49140	-824.03357	1074.30245	1269.50808	-777.13980	1037.91897	1014.91077	-829.16584	981.23744	929.93214	-1078.29921	947.77730	871.16297	-1137.29773	947.77730	871.16297	-1137.29773 
1781	14.833	0.00000	0.00000	0.00000	750.77003	901.05003	-860.83000	667.27724	841.67756	-865.03254	722.93378	536.47347	-1099.68913	816.94585	223.65757	-821.93210	778.04565	142.74529	-932.17764	778.04565	142.74529	-932.17764	769.70084	801.51127	-819.03316	858.33781	509.52815	-1055.67724	894.42722	120.11212	-897.40853	958.62069	40.40080	-1005.02032	958.62069	40.40080	-1005.02032	786.54030	1019.91928	-870.27781	827.88169	1151.56074	-875.12881	852.23932	1202.04735	-878.40248	948.32547	1391.00629	-863.82704	982.28774	1487.83811	-868.66866	982.28774	1487.83811	-868.66866	834.55820	1336.10439	-892.91032	745.32582	1421.05187	-941.25628	621.93758	1198.68339	-977.22100	454.52941	1010.03818	-1062.09967	390.65603	948.79240	-1068.47896	390.65603	948.79240	-1068.47896	959.72000	1276.73194	-823.96513	1073.01418	1268.69052	-777.19601	1038.75364	1013.88882	-829.66093	982.18609	929.12356	-1078.89287	948.82542	870.33316	-1137.92656	948.82542	870.33316	-1137.92656 
1782	14.842	0.00000	0.00000	0.00000	749.26003	900.37003	-860.03998	665.77468	840.97870	-864.12252	723.35844	536.32626	-1099.03081	817.46566	223.64317	-821.15648	778.56058	142.74657	-931.41181	778.56058	142.74657	-931.41181	768.25612	800.85592	-818.21405	858.18298	509.67466	-1055.35897	894.46644	120.12329	-897.46815	958.68245	40.40501	-1005.06135	958.68245	40.40501	-1005.06135	784.99610	1019.24173	-869.58576	826.33607	1150.87757	-874.59863	850.71400	1201.34678	-877.98739	947.01436	1390.24191	-864.01075	981.06940	1487.02602	-869.14579	981.06940	1487.02602	-869.14579	833.13477	1335.38981	-892.74636	743.85103	1420.24537	-941.15888	620.17277	1197.94742	-976.55903	452.38211	1009.38159	-1060.85684	388.65397	947.98395	-1067.22898	388.65397	947.98395	-1067.22898	958.37769	1276.04191	-823.92745	1071.75725	1267.95417	-777.37372	1039.66899	1012.94120	-830.18456	983.45000	928.34681	-1079.55339	950.23941	869.51878	-1138.63420	950.23941	869.51878	-1138.63420 
1783	14.850	0.00000	0.00000	0.00000	747.86003	899.70001	-859.22997	664.38502	840.28454	-863.16989	723.38493	536.12560	-1098.36610	817.58505	223.53591	-820.41817	778.65205	142.65276	-930.67351	778.65205	142.65276	-930.67351	766.94234	800.20804	-817.39065	858.01587	509.81639	-1055.06559	894.51417	120.14429	-897.52259	958.72146	40.42199	-1005.11801	958.72146	40.42199	-1005.11801	783.55042	1018.57746	-868.87472	824.89617	1150.20418	-874.07561	849.31106	1200.64554	-877.60990	945.94351	1389.42741	-864.41706	980.15156	1486.13614	-869.94056	980.15156	1486.13614	-869.94056	831.91615	1334.67061	-892.74555	742.53625	1419.41452	-941.17619	618.62319	1197.17483	-976.11807	450.47811	1008.73128	-1059.98203	386.74669	947.32829	-1066.26918	386.74669	947.32829	-1066.26918	957.20737	1275.33330	-824.00549	1070.75266	1267.22724	-777.86065	1040.90929	1012.00216	-830.96235	985.21598	927.55712	-1080.49969	952.23871	868.68562	-1139.66783	952.23871	868.68562	-1139.66783 
1784	14.858	0.00000	0.00000	0.00000	746.38000	899.01001	-858.34000	662.91650	839.56894	-862.13497	723.33300	536.00752	-1097.74316	817.82530	223.46750	-819.83856	778.87868	142.58825	-930.09195	778.87868	142.58825	-930.09195	765.55662	799.53445	-816.50477	857.99403	510.06839	-1054.78152	894.73276	120.24881	-897.65982	958.92681	40.53224	-1005.26739	958.92681	40.53224	-1005.26739	782.02031	1017.89547	-868.07076	823.37790	1149.51031	-873.47425	847.83953	1199.91651	-877.18276	944.87180	1388.55898	-864.96671	979.26628	1485.17261	-870.97539	979.26628	1485.17261	-870.97539	830.67521	1333.91325	-892.82407	741.19423	1418.59242	-941.18124	616.94987	1196.46233	-975.64022	448.37232	1008.15782	-1058.94643	384.49958	946.86882	-1064.90310	384.49958	946.86882	-1064.90310	955.99963	1274.60756	-824.11725	1069.69284	1266.53512	-778.33213	1042.20693	1011.10935	-831.74058	987.30538	926.77006	-1081.48905	954.65647	867.85712	-1140.79788	954.65647	867.85712	-1140.79788 
1785	14.867	0.00000	0.00000	0.00000	744.82002	898.32001	-857.47002	661.37548	838.84311	-861.11766	723.22708	535.93626	-1097.19546	817.97753	223.43311	-819.33730	779.03320	142.55542	-929.59264	779.03320	142.55542	-929.59264	764.10944	798.85718	-815.65638	857.78145	510.18868	-1054.41803	894.72011	120.23465	-897.67727	958.89943	40.51445	-1005.29093	958.89943	40.51445	-1005.29093	780.39338	1017.21951	-867.27386	821.74136	1148.82863	-872.88622	846.24110	1199.20192	-876.78550	943.63427	1387.72591	-865.66131	978.20244	1484.24186	-872.21810	978.20244	1484.24186	-872.21810	829.28552	1333.15307	-893.03315	739.78627	1417.87303	-941.28495	615.28208	1195.83013	-975.36598	446.38132	1007.56821	-1058.11189	382.31924	946.41991	-1063.44890	382.31924	946.41991	-1063.44890	954.63889	1273.95101	-824.28977	1068.45994	1265.91197	-778.81748	1043.41115	1010.28750	-832.47328	989.63296	926.11568	-1082.52249	957.39258	867.17295	-1142.02487	957.39258	867.17295	-1142.02487 
1786	14.875	0.00000	0.00000	0.00000	743.14003	897.58003	-856.54999	659.71681	838.06452	-860.05254	723.08871	535.78928	-1096.53634	817.91674	223.39221	-818.58537	778.95375	142.52440	-928.84137	778.95375	142.52440	-928.84137	762.55128	798.12240	-814.78040	857.57066	510.31187	-1054.04489	894.70711	120.23246	-897.66328	958.90200	40.50319	-1005.26094	958.90200	40.50319	-1005.26094	778.64015	1016.49703	-866.40704	819.97821	1148.10043	-872.22293	844.51541	1198.43904	-876.32892	942.28361	1386.83664	-866.41951	977.02198	1483.24869	-873.57771	977.02198	1483.24869	-873.57771	827.76271	1332.33717	-893.21169	738.21765	1417.08448	-941.33028	613.42052	1195.13859	-974.96892	444.18263	1006.83732	-1056.93275	379.93086	945.81308	-1061.32620	379.93086	945.81308	-1061.32620	953.18901	1273.25292	-824.49999	1067.15865	1265.24764	-779.39540	1042.04679	1009.62852	-833.04723	989.59664	925.70438	-1083.46152	957.82407	866.74828	-1143.20182	957.82407	866.74828	-1143.20182 
1787	14.883	0.00000	0.00000	0.00000	741.46004	896.83998	-855.56999	658.05854	837.28622	-858.93729	722.83124	535.62572	-1095.82618	817.80071	223.30564	-817.83698	778.80010	142.45514	-928.09237	778.80010	142.45514	-928.09237	760.99745	797.37570	-813.87512	857.45209	510.49208	-1053.67789	894.73149	120.26071	-897.70996	958.90781	40.52478	-1005.31376	958.90781	40.52478	-1005.31376	776.88508	1015.77755	-865.44892	818.21708	1147.37559	-871.42677	842.79902	1197.67685	-875.71874	940.99915	1385.90508	-866.92433	975.93623	1482.20251	-874.63693	975.93623	1482.20251	-874.63693	826.28342	1331.53539	-893.14047	736.68331	1416.35354	-941.03125	611.70017	1194.43821	-974.17731	442.27102	1005.87359	-1055.13439	377.89623	944.91484	-1058.52082	377.89623	944.91484	-1058.52082	951.78473	1272.48317	-824.53830	1065.94888	1264.49776	-779.92477	1041.04169	1008.86316	-833.59825	990.01127	925.32489	-1084.43455	958.74341	866.37977	-1144.45135	958.74341	866.37977	-1144.45135 
